<?xml version="1.0" encoding="utf-8"?>
<!-- Generator: Adobe Illustrator 23.0.3, SVG Export Plug-In . SVG Version: 6.00 Build 0)  -->
<svg version="1.1" id="Layer_1" xmlns="http://www.w3.org/2000/svg" xmlns:xlink="http://www.w3.org/1999/xlink" x="0px" y="0px"
	 viewBox="0 0 120 120" style="enable-background:new 0 0 120 120;" xml:space="preserve">
<style type="text/css">
	.st0{fill:#66FCF1;}
</style>
<g>
	<path class="st0" d="M60,88.2c-11.7,0-23.4,0-35.1,0c-4.1,0-8.2,0.1-12.3,0C7,88.1,1.8,83.6,0.8,78.1c-0.2-0.9-0.3-1.8-0.3-2.6
		c0-16.8,0-33.6,0-50.3c0-4.1,0-8.1,0-12.2C0.6,7.4,4.9,2.3,10.2,1.1c1.6-0.4,3.3-0.4,4.9-0.4c15.1,0,30.2,0,45.3,0
		c9.8,0,19.6,0,29.4,0c5.5,0,11.1,0,16.6,0c6.4,0,11.6,4.3,12.8,10.6c0.1,0.7,0.2,1.5,0.2,2.2c0,10,0,20.1,0,30.1
		c0,10.2,0,20.4,0,30.5c0,2.2-0.1,4.3-1,6.4c-2,4.3-5.3,6.9-10,7.6c-0.9,0.1-1.8,0.1-2.8,0.1c-12.9,0-25.8,0-38.8,0
		C64.6,88.2,62.3,88.2,60,88.2C60,88.2,60,88.2,60,88.2z M10.9,6.5c1.9,1.7,3.7,3.2,5.5,4.8c2.7,2.4,5.5,4.8,8.2,7.1
		C30,23.2,35.5,27.9,41,32.7c5.4,4.7,10.9,9.5,16.3,14.2c1.6,1.4,3.8,1.4,5.4,0.1c1.9-1.6,3.8-3.3,5.7-4.9
		c4.2-3.6,8.3-7.2,12.5-10.8c4.3-3.8,8.6-7.5,13-11.3c4.6-4,9.2-8,13.8-12c0.5-0.4,1-0.8,1.5-1.3C76.3,6.5,43.7,6.5,10.9,6.5z
		 M10.9,82.4c32.8,0,65.5,0,98.3,0C96,71,83,59.7,69.9,48.3c-1.2,1-2.3,2-3.5,3c-2.5,2.1-5.4,2.8-8.6,2.2c-2.1-0.4-3.7-1.5-5.2-2.9
		c-0.8-0.8-1.7-1.5-2.6-2.3C37,59.7,24,71,10.9,82.4z M113.1,78.1c0.4-1,0.5-2,0.5-3.1c0-20.5,0-41,0-61.5c0-0.9-0.3-1.8-0.4-2.7
		c-0.1,0-0.1,0-0.2,0c-12.9,11.2-25.8,22.4-38.7,33.6C87.3,55.7,100.2,66.9,113.1,78.1z M6.9,78.1c12.9-11.2,25.8-22.4,38.7-33.6
		C32.7,33.2,19.8,22,6.9,10.9c-0.1,0-0.1,0-0.2,0.1c-0.1,1-0.3,1.9-0.4,2.9c0,10,0,20,0,30c0,10.5,0,20.9,0,31.4
		C6.3,76.2,6.5,77.1,6.9,78.1z"/>
</g>
</svg>
