<?xml version="1.0" encoding="utf-8"?>
<!-- Generator: Adobe Illustrator 23.0.3, SVG Export Plug-In . SVG Version: 6.00 Build 0)  -->
<svg version="1.1" id="Layer_1" xmlns="http://www.w3.org/2000/svg" xmlns:xlink="http://www.w3.org/1999/xlink" x="0px" y="0px"
	 viewBox="0 0 1366 768" style="enable-background:new 0 0 1366 768;" xml:space="preserve">
<style type="text/css">
	.st0{fill:#66FFFF;}
</style>
<g>
	<path class="st0" d="M114.1,245.7l17.6,4.4c-3.7,14.4-10.3,25.4-19.9,33c-9.6,7.6-21.3,11.4-35.1,11.4c-14.3,0-26-2.9-34.9-8.7
		c-9-5.8-15.8-14.3-20.5-25.3c-4.7-11.1-7-22.9-7-35.6c0-13.8,2.6-25.9,7.9-36.2c5.3-10.3,12.8-18.1,22.6-23.5
		c9.8-5.3,20.5-8,32.2-8c13.3,0,24.5,3.4,33.5,10.1c9.1,6.8,15.4,16.3,18.9,28.5l-17.3,4.1c-3.1-9.7-7.6-16.7-13.4-21.1
		c-5.9-4.4-13.2-6.6-22.1-6.6c-10.2,0-18.7,2.4-25.6,7.3c-6.9,4.9-11.7,11.5-14.5,19.7c-2.8,8.2-4.2,16.8-4.2,25.5
		c0,11.3,1.6,21.2,4.9,29.6c3.3,8.4,8.4,14.7,15.4,18.9c6.9,4.2,14.5,6.3,22.6,6.3c9.8,0,18.2-2.8,25-8.5
		C107.1,265.3,111.7,256.8,114.1,245.7z"/>
	<path class="st0" d="M148,227.5c0-22,5.9-39.3,17.8-51.8c11.8-12.5,27.1-18.7,45.9-18.7c12.3,0,23.3,2.9,33.2,8.8
		c9.8,5.9,17.4,14,22.5,24.5c5.2,10.5,7.7,22.4,7.7,35.7c0,13.5-2.7,25.5-8.2,36.2c-5.4,10.6-13.1,18.7-23.1,24.1
		c-10,5.5-20.7,8.2-32.3,8.2c-12.5,0-23.7-3-33.5-9.1c-9.8-6-17.3-14.3-22.4-24.7C150.5,250.3,148,239.2,148,227.5z M166.1,227.8
		c0,16,4.3,28.6,12.9,37.8c8.6,9.2,19.4,13.8,32.4,13.8c13.2,0,24.1-4.7,32.7-14c8.5-9.3,12.8-22.5,12.8-39.6
		c0-10.8-1.8-20.3-5.5-28.3c-3.7-8.1-9-14.3-16-18.8c-7-4.4-14.9-6.7-23.7-6.7c-12.4,0-23.2,4.3-32.1,12.8
		C170.6,193.5,166.1,207.8,166.1,227.8z"/>
	<path class="st0" d="M297.2,292.2V159.4h26.5l31.4,94.1c2.9,8.8,5,15.3,6.3,19.7c1.5-4.8,3.9-11.9,7.1-21.3l31.8-92.4h23.7v132.8
		H407V181l-38.6,111.2h-15.9l-38.4-113.1v113.1H297.2z"/>
	<path class="st0" d="M455.3,292.2V159.4h17.6v132.8H455.3z"/>
	<path class="st0" d="M503.7,292.2V159.4h18l69.8,104.3V159.4h16.9v132.8h-18l-69.8-104.4v104.4H503.7z"/>
	<path class="st0" d="M700,240.1v-15.6l56.3-0.1v49.3c-8.6,6.9-17.5,12.1-26.7,15.5c-9.2,3.5-18.6,5.2-28.3,5.2
		c-13.1,0-24.9-2.8-35.6-8.4c-10.7-5.6-18.7-13.7-24.1-24.2c-5.4-10.6-8.2-22.4-8.2-35.4c0-12.9,2.7-25,8.1-36.2
		c5.4-11.2,13.2-19.5,23.3-25c10.1-5.4,21.8-8.2,35.1-8.2c9.6,0,18.3,1.6,26.1,4.7c7.8,3.1,13.8,7.4,18.3,13
		c4.4,5.6,7.8,12.8,10.1,21.7l-15.9,4.3c-2-6.8-4.5-12.1-7.4-15.9c-3-3.9-7.2-7-12.7-9.3c-5.5-2.3-11.6-3.5-18.3-3.5
		c-8,0-15,1.2-20.8,3.7c-5.9,2.4-10.6,5.7-14.2,9.7c-3.6,4-6.4,8.4-8.4,13.1c-3.4,8.2-5.1,17.1-5.1,26.7c0,11.8,2,21.7,6.1,29.7
		c4.1,8,10,13.9,17.8,17.8c7.8,3.9,16.1,5.8,24.8,5.8c7.6,0,15-1.5,22.3-4.4c7.3-2.9,12.7-6.1,16.5-9.4v-24.7H700z"/>
	<path class="st0" d="M827.8,249.6l16.6-1.5c0.8,6.6,2.6,12.1,5.5,16.4c2.9,4.3,7.3,7.7,13.4,10.3c6,2.6,12.8,3.9,20.4,3.9
		c6.7,0,12.6-1,17.8-3c5.1-2,9-4.7,11.5-8.2c2.5-3.5,3.8-7.3,3.8-11.4c0-4.2-1.2-7.8-3.6-10.9c-2.4-3.1-6.4-5.7-12-7.8
		c-3.6-1.4-11.4-3.5-23.7-6.5c-12.2-2.9-20.8-5.7-25.6-8.3c-6.3-3.3-11.1-7.4-14.2-12.4c-3.1-4.9-4.7-10.4-4.7-16.5
		c0-6.7,1.9-13,5.7-18.8c3.8-5.8,9.4-10.3,16.7-13.3c7.3-3,15.4-4.5,24.4-4.5c9.8,0,18.5,1.6,26.1,4.8c7.5,3.2,13.3,7.8,17.4,14
		c4,6.2,6.2,13.1,6.5,20.9l-16.9,1.3c-0.9-8.4-4-14.7-9.2-19c-5.2-4.3-12.9-6.4-23.2-6.4c-10.6,0-18.4,1.9-23.2,5.8
		c-4.9,3.9-7.3,8.6-7.3,14.1c0,4.8,1.7,8.7,5.2,11.8c3.4,3.1,12.2,6.2,26.5,9.5c14.3,3.2,24.1,6.1,29.4,8.5
		c7.7,3.6,13.4,8.1,17.1,13.5c3.7,5.5,5.5,11.8,5.5,18.9c0,7.1-2,13.7-6.1,20c-4,6.3-9.9,11.1-17.4,14.6c-7.6,3.5-16.1,5.2-25.6,5.2
		c-12,0-22.1-1.8-30.2-5.3c-8.1-3.5-14.5-8.8-19.1-15.8C830.5,266.4,828.1,258.4,827.8,249.6z"/>
	<path class="st0" d="M952.2,227.5c0-22,5.9-39.3,17.8-51.8c11.8-12.5,27.1-18.7,45.9-18.7c12.3,0,23.3,2.9,33.2,8.8
		c9.8,5.9,17.4,14,22.5,24.5c5.2,10.5,7.7,22.4,7.7,35.7c0,13.5-2.7,25.5-8.2,36.2c-5.4,10.6-13.1,18.7-23.1,24.1
		c-10,5.5-20.7,8.2-32.3,8.2c-12.5,0-23.7-3-33.5-9.1c-9.8-6-17.3-14.3-22.4-24.7C954.8,250.3,952.2,239.2,952.2,227.5z
		 M970.4,227.8c0,16,4.3,28.6,12.9,37.8c8.6,9.2,19.4,13.8,32.4,13.8c13.2,0,24.1-4.7,32.7-14c8.5-9.3,12.8-22.5,12.8-39.6
		c0-10.8-1.8-20.3-5.5-28.3c-3.7-8.1-9-14.3-16-18.8c-7-4.4-14.9-6.7-23.7-6.7c-12.4,0-23.2,4.3-32.1,12.8
		C974.8,193.5,970.4,207.8,970.4,227.8z"/>
	<path class="st0" d="M1096.6,227.5c0-22,5.9-39.3,17.8-51.8c11.8-12.5,27.1-18.7,45.9-18.7c12.3,0,23.3,2.9,33.2,8.8
		c9.8,5.9,17.4,14,22.5,24.5c5.2,10.5,7.7,22.4,7.7,35.7c0,13.5-2.7,25.5-8.2,36.2c-5.4,10.6-13.1,18.7-23.1,24.1
		c-10,5.5-20.7,8.2-32.3,8.2c-12.5,0-23.7-3-33.5-9.1c-9.8-6-17.3-14.3-22.4-24.7C1099.1,250.3,1096.6,239.2,1096.6,227.5z
		 M1114.7,227.8c0,16,4.3,28.6,12.9,37.8c8.6,9.2,19.4,13.8,32.4,13.8c13.2,0,24.1-4.7,32.7-14c8.5-9.3,12.8-22.5,12.8-39.6
		c0-10.8-1.8-20.3-5.5-28.3c-3.7-8.1-9-14.3-16-18.8c-7-4.4-14.9-6.7-23.7-6.7c-12.4,0-23.2,4.3-32.1,12.8
		C1119.2,193.5,1114.7,207.8,1114.7,227.8z"/>
	<path class="st0" d="M1246.1,292.2V159.4h18l69.8,104.3V159.4h16.9v132.8h-18L1263,187.8v104.4H1246.1z"/>
</g>
</svg>
