<?xml version="1.0" encoding="utf-8"?>
<!-- Generator: Adobe Illustrator 23.0.3, SVG Export Plug-In . SVG Version: 6.00 Build 0)  -->
<svg version="1.1" id="Layer_1" xmlns="http://www.w3.org/2000/svg" xmlns:xlink="http://www.w3.org/1999/xlink" x="0px" y="0px"
	 viewBox="0 0 120 120" style="enable-background:new 0 0 120 120;" xml:space="preserve">
<style type="text/css">
	.st0{fill:#CCCCCC;}
</style>
<g>
	<path class="st0" d="M60,0C26.8,0,0,27.5,0,61.4c0,27.4,17.6,50.7,41.8,58.6c0.2,0,3.3-0.1,3.3-2.2c-0.1-8.7,0.1-11.9,0.1-11.9
		c-17.1,2.7-19.9-6.7-21.7-10.6c-2-4.5-5.2-6.1-6.9-7.6c-2.8-2.3,5.2-5.7,12.3,5.2c2.1,3.2,5.3,4.9,9.3,4.9c3.3,0,7.4-1.1,7.5-1.9
		c0.5-5.2,3-7.1,3-7.1c-8.7-1-27.8-4.5-27-30.3C22.1,47.6,27.3,43,27.3,43c-0.7-8.6-1.1-15.2,1.4-17.4c2.8-2.4,11.5,1.8,15.8,6.1
		c0,0,7.2-1.7,15.5-1.8c7.6,0,15.5,2,15.5,2c6.4-5.1,12.8-8.2,15.5-6.4c2.7,1.8,3,6.9,1,17.1c0,0,6.6,3.7,5.9,19.8
		c-0.8,19.4-15.4,25.7-27.5,26.5c0,0,5.7-0.4,3.9,28.3c-0.2,2.8,3.6,2.9,3.8,2.9c24.2-7.9,41.8-31.1,41.8-58.6
		C119.9,27.5,93.1,0,60,0z"/>
</g>
</svg>
