<?xml version="1.0" encoding="utf-8"?>
<!-- Generator: Adobe Illustrator 23.0.3, SVG Export Plug-In . SVG Version: 6.00 Build 0)  -->
<svg version="1.1" xmlns="http://www.w3.org/2000/svg" xmlns:xlink="http://www.w3.org/1999/xlink" x="0px" y="0px"
	 viewBox="0 0 120 120" style="enable-background:new 0 0 120 120;" xml:space="preserve">
<style type="text/css">
	.st0{opacity:0.58;}
	.st1{opacity:0.35;fill:#FFFFFF;}
	.st2{fill:#66FFFF;}
	.st3{fill:#040202;}
</style>
<g id="Layer_3" class="st0">
	<circle class="st1" cx="60.3" cy="60" r="59.9"/>
</g>
<g id="Layer_1">
	<g>
		<polygon class="st2" points="64.1,107.9 23.2,101.3 15.5,93.8 17.3,41.9 67.8,46.2 		"/>
		<g>
			<path class="st3" d="M28.8,71.7l-4.6,3.6c1.2,0.1,2.6,0.3,3.9,0.4l0.7,0.1V71.7z"/>
			<path class="st3" d="M22,58.6v0.6c0,1.8-0.1,3.6-0.1,5.4c0,2.3,0,4.6,0,6.8v1.9c0.5-0.4,0.9-0.7,1.4-1.1c1.4-1.2,3.1-2.5,4.6-3.6
				c1-0.7,1.3-1.4,1.3-2.8c0-1.3,0.1-2.7,0.1-4c0.1-1.3,0.1-2.7,0.1-4c0-0.9-0.1-2-0.3-3v-0.2c0-0.1-0.1-0.2-0.2-0.2
				c-1.4-0.2-2.8-0.5-3.9-0.6c-1.5-0.2-2.7,0-3.9,0.7C22,55.7,22.1,57.2,22,58.6z"/>
			<path class="st3" d="M23.9,94.6c-0.2,0.2-0.4,0.4-0.7,0.6c0.1,0.2,0.3,0.3,0.4,0.3c1.5,0.2,3.1,0.4,4.6,0.6l16.8,2.5
				c3.5,0.5,7.1,0.9,10.6,1.5c0.7,0,1-0.1,1.3-0.7c0.6-1.1,1.2-2.4,1.8-3.5c0.6-1.1,1.1-2.3,1.7-3.4l0.4-0.8
				c-0.3-0.1-0.6-0.3-0.8-0.3c-1.3-0.2-2.7-0.3-4-0.5l-19-2.5c-1.5-0.2-3.2-0.4-4.7-0.6c-0.8-0.1-1.5,0.1-2.2,0.8
				c-1.7,1.7-3.3,3.3-5,4.9L23.9,94.6z"/>
			<path class="st3" d="M18.3,98.6c8.6,9.5,19.4,15.4,32.2,17.5c15.2,2.5,29.2-0.6,42-9.2l-23.9-2.8v-2c0-1,0-2.2,0-3.2
				c0.1-2.2,0.1-4.4,0.2-6.5l0.3-9.3c0.1-5.6,0.3-11.3,0.5-16.9c0.1-3.1,0.2-6.1,0.3-9.2c0-2.1,0.1-4.1,0.2-6.2V50
				c0.1-1.2,0.1-2.6,0.1-3.9c0-1.4-0.6-2-2-2.1c-1.2-0.1-2.6-0.1-3.8-0.1c-1.2,0-2.6,0-3.9-0.1c-3.9-0.2-7.8-0.4-11.8-0.6l-2.9-0.1
				c-0.3,0-0.7,0-1-0.1L44,42.9v-0.4c0-0.1-0.1-0.4,0.1-0.6c0.6-0.6,1.2-1.2,1.8-1.9c1.3-1.5,2.7-2.9,4.1-4.2c2.7-2.6,6-3.7,9.7-3.2
				c1.2,0.1,2.6,0.2,3.9,0.2c0.6,0,1.3,0.1,2,0.1c0.3,0,0.7,0.1,1,0.1c0.6,0.1,1.1,0.1,1.8,0.1c1.3,0,1.9-0.4,2-1.7
				c0.1-1.5,0.2-2.9,0.2-4.4v-0.9c0-3.6,0.1-7.3,0.2-10.9L71,5.6c0-1.3,0-1.3-1.2-1.6c-1.3-0.2-2.7-0.4-3.9-0.5
				c-0.6-0.1-1.2-0.1-1.9-0.2c-0.2,0-0.4-0.1-0.6-0.1H63h-5.9l-1.2,0.2c-0.9,0.1-1.8,0.2-2.7,0.3c-8.8,1-16.9,3.9-24.1,8.8
				C16,21.2,7.7,33.3,4.7,48.2C0.8,67.2,5.4,84.1,18.3,98.6z M18.4,86.7l0.1-5.5c0.1-2.3,0.1-4.6,0.2-6.8v-0.2
				c0.2-5.8,0.3-11.7,0.5-17.5c0.1-0.7,0.4-1.5,0.6-1.9c0.1-0.2,0.2-0.3,0.2-0.5L20,54.2c0-0.2,0-0.4-0.1-0.6
				c-0.2-0.3-0.2-0.7-0.3-1.1c0-0.2-0.1-0.4-0.1-0.6l-0.1-0.6h3.7c2.1,0,4,0,6,0c0.3,0,0.3,0,0.4-0.3c0.1-0.6,0.2-1.2,0.3-1.9
				c0.1-0.5,0.2-1,0.3-1.6c0.1-0.9,0.6-1.2,1.5-1.2c1.4,0.1,3,0.2,4.4,0.2c1.3,0,2.7,0,3.9,0.1c2.3,0.1,4.5,0.2,6.8,0.3
				c1.8,0,3.4,0.1,5.2,0.2c2.6,0.1,5.3,0.2,7.8,0.3l3.7,0.2c0.2,0,0.4,0,0.6,0c2,0.3,2.8,1.3,2.6,3.1l-0.1,1.6
				c-0.1,1-0.1,2.2-0.2,3.2l-0.1,1.9c-0.2,2.4-0.3,4.8-0.4,7.1c-0.2,5.2-1.5,9.5-3.9,13.4c-0.5,0.7-0.9,1.5-1.2,2.3
				c-0.4,1.1-1.3,1.8-2.7,1.7c-1.1-0.1-2.4-0.2-3.5-0.3h-0.3c-2.1-0.2-4-0.4-6.1-0.6c-2.5-0.2-5-0.5-7.4-0.7
				c-1.2-0.1-2.4-0.2-3.6-0.3c-1.7-0.2-3.3-0.3-5-0.5c-0.2,0-0.3,0-0.4,0.1c0,0-0.1,0.1-0.1,0.3c-0.1,1.5-0.1,2.8-0.1,3.9
				c0,0.9,0.2,1,1.1,1.1c1.8,0.2,3.6,0.4,5.4,0.6c2.4,0.3,4.7,0.5,7.1,0.8c4.1,0.5,8.3,1,12.4,1.6c1.1,0.2,2.4,0.3,3.5,0.5l1,0.1
				c0.2,0.1,0.4,0.1,0.6,0.2c0.8,0.3,1.3,0.6,1.5,1.1c0.2,0.5,0.2,1-0.1,1.8c-0.4,1-0.8,2.1-1.3,3.1c-0.3,0.5-0.5,0.9-0.7,1.4
				l-0.5,1.2c-0.6,1.2-1.2,2.5-1.8,3.8c-0.6,1.6-1.4,2.2-2.8,2.2c-0.2,0-0.4-0.1-0.7-0.1c-2.6-0.4-5.3-0.7-7.8-1.1
				c-3-0.4-6-0.8-9-1.2c-2.7-0.4-5.5-0.8-8.2-1.1c-2.1-0.3-4.1-0.5-6.2-0.8c-1-0.2-1.9-0.3-2.7-0.5c-3-0.7-4.1-2.3-4.1-5.3
				C18.3,90.9,18.3,88.8,18.4,86.7z"/>
			<path class="st3" d="M32.8,76.3c0.3,0.1,0.6,0.1,1,0.2c0.8,0.1,1.7,0.2,2.5,0.3c0.9,0.1,1.9,0.2,2.8,0.3l7.3,0.9
				c3.2,0.4,6.4,0.7,9.6,1.1c0.5,0,1.1,0.1,1.7,0.1h0.2v-6.9l-11.1-1.1c-2.5-0.2-5.1-0.5-7.5-0.7c-0.8,0-1.5-0.1-2.3-0.2
				c-1.2-0.2-2.6-0.3-3.9-0.4c-0.1,0-0.2,0-0.3,0c-0.3,0-0.4,0-0.5,0.1c-0.1,0.1-0.2,0.6-0.2,0.8c-0.1,1.3-0.1,2.6-0.2,3.9
				C31.7,75.7,32,76.1,32.8,76.3z"/>
			<path class="st3" d="M33,51.6c0.7,0.1,1.3,0.1,2.1,0.2l6.7,0.5c4.4,0.3,8.8,0.7,13.2,1c1.4,0.2,3.1,0.3,4.6,0.6
				c1.2,0.2,2.1,1,2.3,2.4C62,57.2,62,58,62,58.7v0.5c-0.2,2.9-0.4,5.9-0.6,8.8c-0.1,0.8,0.3,1.3,0.8,1.9c0.7-0.3,0.9-0.8,0.9-1.9
				c0-0.8,0.1-1.6,0.1-2.3c0.1-0.4,0.1-0.7,0.1-1l0.1-2.4c0.2-2.5,0.3-4.9,0.4-7.3c0.1-1.2,0.2-2.4,0.2-3.6v-1l-31.9-1.8l0.2,2.8
				L33,51.6z"/>
			<path class="st3" d="M58.5,66.6c0.2-3.1,0.4-6.2,0.5-9.2c0-0.4-0.5-0.9-1-0.9c-2.3-0.2-4.5-0.4-6.8-0.6c-3.9-0.3-7.9-0.6-12-0.9
				c-1.7-0.1-3.5-0.2-5.5-0.3c-0.4-0.1-0.7,0.1-1,0.3c-0.3,0.3-0.4,0.6-0.4,1c-0.1,3.1-0.1,6.2-0.1,9.3v2l26.1,2.1L58.5,66.6z"/>
			<path class="st3" d="M28.1,85.8c0.4-0.5,0.7-1.3,0.8-2.2c0-0.8,0-1.7-0.1-2.5c0-0.5-0.1-0.9-0.1-1.3c0-0.4-0.1-0.6-0.6-0.7
				c-1.5-0.4-3-0.8-4.4-1.2l-1.2-0.3c-0.3-0.1-0.6-0.2-0.9-0.3v3.9c0,3.4,0,6.9,0,10.5c0,0.7,0.1,1,0.6,1.2c0.2-0.2,0.4-0.5,0.6-0.7
				c0.5-0.6,0.9-1.1,1.4-1.7C25.6,89,26.9,87.3,28.1,85.8z"/>
			<path class="st3" d="M116.4,67c0.1-0.9,0.2-1.8,0.3-2.6l0.1-1.3v-6c0-0.2-0.1-0.3-0.1-0.5c-0.1-0.9-0.2-1.8-0.3-2.6
				c-0.2-1.8-0.4-3.5-0.8-5.3C111,28.6,98.9,14.5,79.6,6.8L79,33.6c0.1,0,0.3,0,0.4,0l5.2,0.2c3.4,0.1,6.8,0.3,10.2,0.4
				c1.1,0,2.2,0.1,3.3,0.3c2,0.4,2.9,1.6,2.9,3.4c-0.1,1.7-0.2,3.2-0.3,4.9c0,0.7-0.1,1.5-0.1,2.2v0.5l-22-1c0,0.1,0,0.2,0,0.3
				c-0.1,0.5-0.2,0.9-0.2,1.5c-0.1,3.5-0.3,7.1-0.4,10.8l-0.8,20.2c0,0.6-0.1,1.2-0.1,1.9c0,1.4-0.1,3-0.1,4.5
				c0,1.4,0.6,2.1,2.2,2.3l5,0.4c3.5,0.3,7,0.6,10.5,0.9c2.4,0.2,3.5,1.6,3.4,3.9c-0.1,1.6-0.2,3.1-0.3,4.7c-0.1,0.9-0.1,2-0.2,2.9
				c-0.1,1.2-0.1,2.5-0.2,3.7v0.7c3.2-2.8,6.1-5.9,8.6-9.3C111.6,85.8,115.2,76.8,116.4,67z"/>
			<path class="st3" d="M73.1,55.5l-0.4,19.4c-0.1,4.5-0.2,8.9-0.4,13.4c0,0.6,0,1,0.1,1.5c0.1,0.1,0.1,0.1,0.2,0.1
				c0.1-0.5,0.2-0.9,0.3-1.3c0.3-1.2,0.6-2.6,0.7-3.8c0.4-5.8,0.6-11.7,0.8-17.1c0.1-3.2,0.2-6.5,0.3-9.7c0.1-3.4,0.2-6.7,0.3-10.2
				c0.1-1.3-0.1-2.4-0.7-3.2c-0.1,0.2-0.1,0.3-0.2,0.4c-0.1,0.2-0.2,0.4-0.3,0.6c-0.2,0.4-0.5,0.9-0.5,1.2
				C73.2,49.6,73.2,52.6,73.1,55.5z"/>
			<path class="st3" d="M74.8,8l-1,0.1l0.1,6.5c0,5.2,0,10.4,0,15.5c0,0.9,0.3,1.8,1,2.7c0.5-0.6,1-1.2,1-2.2c-0.1-0.8,0-1.7,0-2.5
				c0-0.3,0-0.7,0-1.1l0.1-3.8c0.2-4.4,0.3-8.6,0.4-12.9c0-1.1,0-2.3,0-3.4c0-0.4,0-0.8,0-1.2l-1.7-0.4V8z"/>
			<path class="st3" d="M82.2,40.8c0.1,0,0.1,0,0.2,0c0.3,0,0.5,0.1,0.8,0.1c0.2,0,0.3,0,0.5,0l3.1,0.2c2,0.2,3.8,0.3,5.7,0.4
				c0.4,0,0.9,0.1,1.3,0.1c0.7,0.1,1.4,0.2,2.2,0.2c1.3,0,2-0.6,2.3-1.9c0.1-0.4,0.1-0.7,0.1-1.1c0-0.3,0-0.5,0-0.8
				c0-0.1,0-0.2,0-0.2s-0.1,0-0.3,0c-1.7-0.1-3.4-0.2-5.1-0.3c-2.9-0.2-6-0.4-9-0.5c-0.7,0-1.3-0.1-1.8-0.1
				c-1.8-0.1-1.8-0.1-2.9,0.9c-0.2,0.2-0.5,0.4-0.8,0.7c0.1,0.2,0.2,0.3,0.4,0.5C79.8,40.3,80.9,40.9,82.2,40.8z"/>
			<path class="st3" d="M75.2,36.3c-0.2-0.1-0.3-0.2-0.4-0.2c0,0-0.1,0-0.2,0c0,0,0,0.1-0.2,0.4c0,0.1-0.1,0.3-0.1,0.4
				c-0.1,0.2-0.1,0.3-0.2,0.5c-0.5,1.2-0.3,2.2,0.6,3l0.1-0.1c0.2-0.4,0.5-0.8,0.7-1.2C76.2,37.6,76.2,37.6,75.2,36.3z"/>
			<path class="st3" d="M73.1,99.9l-0.3,0.9l2.7,0.2c3.4,0.3,6.8,0.6,10.3,0.9c1.1,0.1,2.3,0.2,3.4,0.3c1.4,0.2,2.9,0.3,4.3,0.4h0.1
				c0.3-3.3,0.5-6.5,0.8-9.8c0-0.8-0.2-1.3-0.8-1.8c-0.4-0.2-1-0.6-1.5-0.6c-4.3-0.3-8.9-0.7-13.9-1.1c-1-0.1-2,0.5-2.4,1.7
				c-0.5,1.8-1.1,3.5-1.7,5.3C73.9,97.5,73.4,98.6,73.1,99.9z"/>
			<path class="st3" d="M68.7,36.3c-0.5-0.1-0.9-0.1-1.4-0.1h-0.5c-0.7-0.1-1.3-0.1-2.1-0.1c-1.4,0-3-0.1-4.5-0.3
				c-3.6-0.5-7.2,1-9.4,3.9l3.2,0.1c4.4,0.2,8.8,0.3,13.2,0.5c1.2,0,2.3-0.6,2.8-1.9c0.2-0.4,0.3-1,0-1.5
				C69.6,36.5,69.1,36.4,68.7,36.3z"/>
		</g>
	</g>
</g>
</svg>
