<?xml version="1.0" encoding="utf-8"?>
<!-- Generator: Adobe Illustrator 23.0.3, SVG Export Plug-In . SVG Version: 6.00 Build 0)  -->
<svg version="1.1" id="Layer_1" xmlns="http://www.w3.org/2000/svg" xmlns:xlink="http://www.w3.org/1999/xlink" x="0px" y="0px"
	 viewBox="0 0 120 120" style="enable-background:new 0 0 120 120;" xml:space="preserve">
<style type="text/css">
	.st0{fill:#2E2E2E;}
	.st1{fill:#FFFFFF;}
</style>
<circle class="st0" cx="60.4" cy="60.5" r="58.2"/>
<path class="st1" d="M63.8,47.8c-0.2,0-0.4,0-0.6,0l-3.6-0.2c-2.5-0.1-5.1-0.2-7.6-0.3c-1.7-0.1-3.3-0.2-5-0.2
	c-2.2-0.1-4.4-0.2-6.6-0.3c-1.2-0.1-2.5-0.1-3.8-0.1c-1.4,0-2.9-0.1-4.3-0.2c-0.9,0-1.4,0.3-1.5,1.2c-0.1,0.5-0.2,1-0.3,1.5
	c-0.1,0.6-0.2,1.2-0.3,1.8c-0.1,0.3-0.1,0.3-0.4,0.3c-1.9,0-3.8,0-5.8,0l-3.6,0l0.1,0.6c0,0.2,0.1,0.4,0.1,0.6
	c0.1,0.4,0.1,0.8,0.3,1.1c0.1,0.2,0.1,0.4,0.1,0.6L21,54.2l0.1,0.1c0,0.2-0.1,0.3-0.2,0.5c-0.2,0.4-0.5,1.1-0.6,1.8
	c-0.2,5.6-0.3,11.3-0.5,16.9l0,0.2c-0.1,2.2-0.1,4.4-0.2,6.6l-0.1,5.3c-0.1,2-0.1,4.1-0.1,6.1c0,2.9,1.1,4.4,4,5.1
	c0.8,0.2,1.6,0.3,2.6,0.5c2,0.3,4,0.5,6,0.8c2.6,0.3,5.3,0.7,7.9,1.1c2.9,0.4,5.8,0.8,8.7,1.2c2.5,0.4,5.1,0.7,7.6,1.1
	c0.3,0,0.5,0.1,0.7,0.1c1.3,0,2.1-0.6,2.7-2.1c0.5-1.3,1.1-2.5,1.7-3.7l0.5-1.2c0.2-0.5,0.4-0.9,0.7-1.4c0.5-1,0.9-2,1.3-3
	c0.3-0.7,0.3-1.2,0.1-1.7c-0.2-0.5-0.7-0.8-1.5-1.1c-0.2-0.1-0.4-0.1-0.6-0.2l-1-0.1c-1.1-0.2-2.3-0.3-3.4-0.5c-4-0.5-8-1-12-1.5
	c-2.3-0.3-4.6-0.5-6.9-0.8c-1.7-0.2-3.5-0.4-5.2-0.6c-0.9-0.1-1.1-0.2-1.1-1.1c0-1.1,0-2.4,0.1-3.8c0-0.2,0.1-0.3,0.1-0.3
	c0.1-0.1,0.2-0.1,0.4-0.1c1.6,0.2,3.2,0.3,4.8,0.5c1.2,0.1,2.3,0.2,3.5,0.3c2.4,0.2,4.8,0.5,7.2,0.7c2,0.2,3.9,0.4,5.9,0.6l0.3,0
	c1.1,0.1,2.3,0.2,3.4,0.3c1.3,0.1,2.2-0.5,2.6-1.6c0.3-0.8,0.7-1.5,1.2-2.2c2.3-3.7,3.6-7.9,3.8-12.9c0.1-2.3,0.2-4.6,0.4-6.9
	l0.1-1.8c0.1-1,0.1-2.1,0.2-3.1l0.1-1.5C66.5,49.1,65.7,48.1,63.8,47.8z M25.9,53.7c1.1,0.1,2.4,0.4,3.8,0.6c0.1,0,0.2,0.1,0.2,0.2
	l0,0.2c0.2,1,0.3,2,0.3,2.9c0,1.3,0,2.6-0.1,3.9c0,1.3-0.1,2.6-0.1,3.9c0,1.3-0.3,2-1.3,2.7c-1.5,1.1-3.1,2.3-4.5,3.5
	c-0.5,0.4-0.9,0.7-1.4,1.1l0-1.8c0-2.2,0-4.4,0-6.6c0-1.7,0.1-3.5,0.1-5.2l0-0.6c0.1-1.4,0-2.8-0.8-4.1
	C23.3,53.7,24.4,53.5,25.9,53.7z M29.5,71.1v4L28.8,75c-1.3-0.1-2.6-0.3-3.8-0.4c0,0,0,0,0,0L29.5,71.1z M23.1,91.5L23.1,91.5
	c-0.5-0.2-0.6-0.5-0.6-1.2c0-3.4,0-6.8,0-10.1l0-3.8c0.3,0.1,0.6,0.2,0.9,0.3l1.2,0.3c1.4,0.4,2.8,0.8,4.3,1.2
	c0.5,0.1,0.6,0.3,0.6,0.7c0,0.4,0.1,0.8,0.1,1.3c0.1,0.8,0.1,1.6,0.1,2.4c-0.1,0.8-0.4,1.6-0.8,2.1c-1.2,1.5-2.5,3.1-3.8,4.5
	c-0.5,0.5-0.9,1-1.4,1.6C23.5,91,23.3,91.3,23.1,91.5z M32.9,86.5L32.9,86.5c1.5,0.2,3.1,0.4,4.6,0.6l18.4,2.4
	c1.3,0.2,2.6,0.3,3.9,0.5c0.2,0,0.5,0.2,0.8,0.3l-0.4,0.8c-0.5,1.1-1,2.2-1.6,3.3c-0.5,1.1-1.1,2.3-1.7,3.4
	c-0.3,0.6-0.6,0.7-1.3,0.7c-3.4-0.5-6.9-0.9-10.3-1.4L29,94.7c-1.5-0.2-3-0.4-4.5-0.6c-0.1,0-0.3-0.1-0.4-0.3
	c0.3-0.2,0.5-0.4,0.7-0.6L26,92c1.6-1.5,3.2-3.1,4.8-4.7C31.4,86.6,32.1,86.4,32.9,86.5z M57.7,78.5l-0.2,0c-0.5,0-1.1-0.1-1.6-0.1
	c-3.1-0.4-6.2-0.7-9.3-1.1l-7.1-0.9c-0.9-0.1-1.8-0.2-2.7-0.3c-0.8-0.1-1.6-0.2-2.4-0.3c-0.4-0.1-0.7-0.1-1-0.2
	c-0.8-0.2-1.1-0.6-1-1.5c0.1-1.3,0.1-2.5,0.2-3.8c0-0.2,0.1-0.7,0.2-0.8c0.1-0.1,0.2-0.1,0.5-0.1c0.1,0,0.2,0,0.3,0
	c1.3,0.1,2.6,0.2,3.8,0.4c0.7,0.1,1.4,0.2,2.2,0.2c2.4,0.2,4.9,0.5,7.3,0.7l10.8,1.1V78.5z M58.3,66.2l-0.2,2.6l-25.3-2l0-1.9
	c0-3,0-6,0.1-9c0-0.4,0.1-0.7,0.4-1c0.3-0.2,0.6-0.4,1-0.3c1.9,0.1,3.7,0.2,5.3,0.3c3.9,0.3,7.8,0.6,11.6,0.9
	c2.2,0.2,4.4,0.4,6.6,0.6c0.5,0,1,0.5,1,0.9C58.7,60.2,58.5,63.2,58.3,66.2z M63.7,51.6c0,1.2-0.1,2.3-0.2,3.5
	c-0.1,2.3-0.2,4.6-0.4,7l-0.1,2.3c0,0.3,0,0.6-0.1,1c0,0.7-0.1,1.4-0.1,2.2c0,1-0.2,1.5-0.9,1.8c-0.5-0.5-0.9-1-0.8-1.8
	c0.2-2.8,0.4-5.7,0.6-8.5l0-0.5c0-0.7,0-1.5-0.1-2.3c-0.2-1.3-1-2.1-2.2-2.3c-1.5-0.3-3.1-0.4-4.5-0.6c-4.3-0.3-8.5-0.7-12.8-1
	l-6.5-0.5c-0.7-0.1-1.3-0.1-2-0.2l-0.6-0.1l-0.2-2.7l30.9,1.7L63.7,51.6z"/>
<path class="st1" d="M60,0.3C27,0.3,0.2,27.1,0.2,60S27,119.7,60,119.7c32.9,0,59.8-26.8,59.8-59.7S92.9,0.3,60,0.3z M73.1,9.7
	l1-0.1V6.9l1.6,0.4c0,0.4,0,0.8,0,1.2c0,1.1,0,2.2,0,3.3c-0.1,4.2-0.2,8.3-0.4,12.5L75.2,28c0,0.4,0,0.8,0,1.1c0,0.8-0.1,1.6,0,2.4
	c0,0.9-0.5,1.5-1,2.1c-0.7-0.9-1-1.7-1-2.6c0-5,0-10,0-15L73.1,9.7C73.1,9.8,73.1,9.7,73.1,9.7z M74.8,39.6
	c-0.2,0.4-0.5,0.8-0.7,1.2L74,40.9c-0.9-0.8-1.1-1.7-0.6-2.9c0.1-0.2,0.1-0.3,0.2-0.5c0-0.1,0.1-0.3,0.1-0.4
	c0.2-0.3,0.2-0.4,0.2-0.4c0.1,0,0.2,0,0.2,0c0.1,0,0.2,0.1,0.4,0.2C75.5,38.2,75.5,38.2,74.8,39.6z M72.1,74.2l0.4-18.7
	c0.1-2.8,0.1-5.7,0.2-8.5c0-0.3,0.3-0.8,0.5-1.2c0.1-0.2,0.2-0.4,0.3-0.6c0.1-0.1,0.1-0.2,0.2-0.4c0.6,0.8,0.8,1.8,0.7,3.1
	c-0.1,3.3-0.2,6.5-0.3,9.8c-0.1,3.1-0.2,6.3-0.3,9.4C73.6,72.3,73.4,78,73,83.6c-0.1,1.2-0.4,2.5-0.7,3.7c-0.1,0.4-0.2,0.8-0.3,1.3
	c-0.1,0-0.1,0-0.2-0.1c-0.1-0.4-0.1-0.8-0.1-1.4C71.9,82.8,72,78.5,72.1,74.2z M72.1,88.6C72.1,88.6,72.1,88.6,72.1,88.6
	C72.1,88.6,72.1,88.6,72.1,88.6C72.1,88.6,72.1,88.6,72.1,88.6z M50.6,114c-12.4-2-22.9-7.7-31.2-16.9C6.9,83.1,2.4,66.8,6.2,48.4
	C9.1,34,17.1,22.4,29.8,14c7-4.7,14.9-7.5,23.4-8.5c0.9-0.1,1.7-0.2,2.6-0.3L57,5l5.7,0L63,5c0.2,0,0.4,0.1,0.6,0.1
	c0.6,0.1,1.2,0.1,1.8,0.2c1.2,0.1,2.5,0.3,3.8,0.5C70.4,6,70.4,6,70.4,7.3l-0.2,9.3c-0.1,3.5-0.2,7-0.2,10.5l0,0.9
	c0,1.4-0.1,2.8-0.2,4.2c-0.1,1.2-0.6,1.6-1.9,1.6c-0.6,0-1.1,0-1.7-0.1c-0.3,0-0.7-0.1-1-0.1c-0.6,0-1.3-0.1-1.9-0.1
	c-1.3,0-2.6-0.1-3.8-0.2c-3.6-0.5-6.8,0.6-9.4,3.1c-1.4,1.3-2.7,2.7-4,4.1c-0.5,0.6-1.1,1.2-1.7,1.8c-0.2,0.2-0.1,0.5-0.1,0.6l0,0.4
	l0.8,0.1c0.3,0.1,0.7,0.1,1,0.1l2.8,0.1c3.8,0.2,7.6,0.4,11.4,0.6c1.3,0.1,2.6,0.1,3.8,0.1c1.2,0,2.5,0,3.7,0.1
	c1.3,0.1,1.9,0.6,1.9,2c0,1.3,0,2.6-0.1,3.8l0,0.7c-0.1,2-0.2,4-0.2,6c-0.1,3-0.2,5.9-0.3,8.9c-0.2,5.4-0.4,10.9-0.5,16.3l-0.3,9
	c-0.1,2.1-0.1,4.2-0.2,6.3c0,1,0,2.1,0,3.1l0,1.9l23.2,2.7C78.9,113.4,65.3,116.4,50.6,114z M69.4,39c-0.5,1.2-1.5,1.8-2.7,1.8
	c-4.3-0.2-8.5-0.3-12.8-0.5l-3.1-0.1c2.1-2.8,5.6-4.3,9.1-3.8c1.5,0.2,3,0.3,4.4,0.3c0.7,0,1.3,0,2,0.1l0.5,0c0.5,0,0.9,0,1.4,0.1
	c0.4,0.1,0.9,0.2,1.2,0.7C69.7,38,69.6,38.6,69.4,39z M92.4,101C92.4,101,92.4,101,92.4,101c0,0-0.1,0-0.1,0
	c-1.4-0.1-2.8-0.2-4.2-0.4c-1.1-0.1-2.2-0.2-3.3-0.3c-3.4-0.3-6.7-0.6-10-0.9l-2.6-0.2c0,0,0,0,0,0l0.3-0.9c0.3-1.2,0.7-2.3,1-3.5
	c0.5-1.7,1.1-3.4,1.6-5.1c0.4-1.1,1.3-1.7,2.3-1.6c4.9,0.4,9.3,0.8,13.5,1.1c0.5,0,1.1,0.4,1.5,0.6c0.6,0.4,0.8,0.9,0.8,1.7
	C92.9,94.7,92.7,97.8,92.4,101z M114.4,66.6c-1.1,9.4-4.6,18.1-10.2,25.8c-2.4,3.3-5.2,6.3-8.3,9l0-0.7c0.1-1.2,0.1-2.4,0.2-3.6
	c0.1-0.9,0.1-1.9,0.2-2.8c0.1-1.5,0.2-3,0.3-4.5c0.1-2.3-1-3.6-3.3-3.8c-3.4-0.3-6.8-0.6-10.2-0.9l-4.8-0.4
	c-1.5-0.2-2.1-0.8-2.1-2.2c0-1.4,0.1-2.9,0.1-4.3c0-0.6,0.1-1.2,0.1-1.8l0.8-19.5c0.1-3.5,0.3-7,0.4-10.4c0-0.5,0.1-0.9,0.2-1.4
	c0-0.1,0-0.2,0-0.3l21.3,1l0-0.5c0-0.7,0.1-1.4,0.1-2.1c0.1-1.6,0.2-3.1,0.3-4.7c0-1.8-0.9-2.9-2.8-3.3c-1.1-0.2-2.1-0.3-3.2-0.3
	c-3.3-0.1-6.6-0.3-9.9-0.4l-5-0.2c-0.1,0-0.3,0-0.4,0l0.6-25.8c18.7,7.4,30.4,21,34.8,40.4c0.4,1.7,0.6,3.4,0.8,5.1
	c0.1,0.8,0.2,1.6,0.3,2.5c0,0.2,0.1,0.3,0.1,0.5l0,5.8l-0.1,1.3C114.6,64.9,114.5,65.7,114.4,66.6z M77.8,39.1
	c0.3-0.3,0.6-0.5,0.8-0.7c1.1-1,1.1-1,2.8-0.9c0.4,0,1,0.1,1.7,0.1c2.9,0.1,5.9,0.3,8.7,0.5c1.6,0.1,3.3,0.2,4.9,0.3
	c0.2,0,0.3,0,0.3,0c0,0,0,0.1,0,0.2c0,0.3,0,0.5,0,0.8c0,0.4,0,0.7-0.1,1.1c-0.3,1.2-0.9,1.8-2.2,1.8c0,0,0,0,0,0
	c-0.7,0-1.4-0.1-2.1-0.2c-0.4,0-0.9-0.1-1.3-0.1c-1.8-0.1-3.6-0.2-5.5-0.4l-3-0.2c-0.2,0-0.3,0-0.5,0c-0.3,0-0.5-0.1-0.8-0.1
	c-0.1,0-0.1,0-0.2,0c-1.3,0.1-2.3-0.5-3.1-1.7C78,39.4,77.9,39.3,77.8,39.1z"/>
</svg>
