<?xml version="1.0" encoding="utf-8"?>
<!-- Generator: Adobe Illustrator 23.0.3, SVG Export Plug-In . SVG Version: 6.00 Build 0)  -->
<svg version="1.1" xmlns="http://www.w3.org/2000/svg" xmlns:xlink="http://www.w3.org/1999/xlink" x="0px" y="0px"
	 viewBox="0 0 120 120" style="enable-background:new 0 0 120 120;" xml:space="preserve">
<style type="text/css">
	.st0{fill:#FFFFFF;}
	.st1{fill:#CCCCCC;}
</style>
<g id="Layer_2">
</g>
<g id="Layer_1">
	<g>
		<circle class="st0" cx="60.3" cy="59.7" r="59.3"/>
		<g>
			<g>
				<path class="st1" d="M57.4,2.9c2,0,3.9,0,5.9,0c0.3,0,0.6,0.1,0.9,0.1c1.9,0.2,3.8,0.4,5.7,0.7c1.7,0.3,1.7,0.3,1.7,2
					c-0.2,6.7-0.3,13.5-0.4,20.2c0,1.7-0.1,3.4-0.2,5.1c-0.1,1.5-0.9,2.1-2.4,2.1c-1,0-1.9-0.1-2.9-0.2c-2-0.1-3.9-0.1-5.9-0.3
					c-3.6-0.5-6.6,0.6-9.2,3c-2,1.9-3.8,4-5.7,6c0,0,0,0.1,0,0.2c0.5,0.1,0.9,0.2,1.4,0.2c4.8,0.2,9.6,0.5,14.5,0.7
					c2.6,0.1,5.2,0.1,7.7,0.2c1.6,0.1,2.4,0.9,2.5,2.5c0,1.5,0,3.1-0.1,4.6c-0.2,5.1-0.4,10.1-0.6,15.2c-0.3,7.7-0.5,15.4-0.7,23.2
					c-0.1,3-0.2,6.1-0.3,9.1c0,1.5,0,3.1,0,4.7c8.1,0.9,16.2,1.9,24.3,2.8c-0.1,0.1-0.1,0.2-0.1,0.2c-0.1,0.1-0.3,0.2-0.4,0.3
					c-12.8,8.9-26.9,12.1-42.2,9.6c-12.7-2.1-23.5-7.9-32.1-17.4C5.8,83.4,1.2,66.5,5.1,47.6c3.1-15.1,11.5-26.9,24.3-35.5
					c7.3-4.9,15.4-7.8,24.1-8.8C54.8,3.2,56.1,3.1,57.4,2.9z M20.7,48.8c0.1,0.7,0.2,1.2,0.4,1.8c0.2,0.7,0.1,1.2-0.2,1.8
					c-0.3,0.5-0.5,1.1-0.5,1.7c-0.2,6.1-0.4,12.3-0.5,18.4c-0.1,3.3-0.2,6.6-0.2,9.9c-0.1,3.1-0.2,6.2-0.2,9.3c0,2.9,1,4.2,3.8,4.9
					c0.9,0.2,1.8,0.4,2.7,0.5c5,0.7,9.9,1.3,14.9,2c5.8,0.8,11.6,1.6,17.4,2.5c1.7,0.2,2.4-0.3,3.1-1.8c0.8-1.8,1.6-3.5,2.4-5.3
					c0.7-1.6,1.5-3.1,2.1-4.7c0.5-1.2,0.1-1.9-1.2-2.3c-0.2-0.1-0.4-0.1-0.6-0.1c-1.6-0.2-3.1-0.5-4.7-0.6
					c-4.3-0.5-8.6-1.1-12.9-1.6c-4.3-0.5-8.6-1-12.9-1.4c-1.3-0.1-1.6-0.5-1.6-1.7c0-1.4,0-2.7,0.1-4.1c0-0.6,0.3-1,1.1-0.9
					c3,0.3,6,0.6,8.9,0.9c4.7,0.5,9.3,1,14,1.4c1.3,0.1,2.7,0.3,4,0.3c1,0,1.8-0.3,2.3-1.4c0.3-0.8,0.8-1.6,1.3-2.4
					c2.6-4.2,3.8-8.7,4-13.6c0.1-3.1,0.3-6.2,0.5-9.3c0.1-1.6,0.2-3.3,0.3-4.9c0.1-1.8-0.5-2.6-2.3-2.9c-0.2,0-0.4,0-0.6,0
					c-4-0.2-8-0.4-12-0.5c-4.1-0.2-8.3-0.4-12.4-0.6c-2.9-0.1-5.7-0.2-8.6-0.3c-0.7,0-0.9,0.2-1,0.9c-0.2,1.2-0.5,2.3-0.7,3.5
					c-0.1,0.6-0.3,0.8-1,0.8c-2.8,0-5.6,0-8.4,0C21.4,48.8,21.1,48.8,20.7,48.8z"/>
				<path class="st1" d="M116.9,62.4c-0.1,1.3-0.3,2.6-0.4,3.9c-1.2,9.8-4.7,18.6-10.5,26.6c-2.6,3.6-5.6,6.8-8.9,9.6
					c-0.1,0.1-0.3,0.2-0.6,0.4c0.1-1.9,0.2-3.7,0.3-5.5c0.2-2.5,0.4-4.9,0.5-7.4c0.1-2.1-0.8-3.2-2.8-3.4c-4.9-0.5-9.8-0.8-14.7-1.3
					c-0.2,0-0.4,0-0.6,0c-1.7-0.2-2.6-1.1-2.6-2.8c0-2.1,0.1-4.2,0.2-6.3c0.2-5.6,0.4-11.2,0.7-16.8c0.2-4.6,0.4-9.2,0.6-13.7
					c0-0.7,0.2-1.5,0.3-2.3c7.2,0.4,14.4,0.7,21.6,1.1c0.1-2.4,0.4-4.6,0.4-6.9c0-1.6-0.8-2.5-2.5-2.9c-1.1-0.2-2.1-0.3-3.2-0.3
					c-5.1-0.2-10.1-0.4-15.2-0.6c-0.3,0-0.5-0.1-0.9-0.1c0.2-9.2,0.5-18.3,0.7-27.5c0.2,0.1,0.4,0.1,0.6,0.2
					C99.1,14,111.1,27.8,115.7,48c0.6,2.5,0.7,5.2,1.1,7.8c0,0.2,0.1,0.5,0.1,0.7C116.9,58.5,116.9,60.5,116.9,62.4z"/>
				<path class="st1" d="M72.3,100c0.5-1.7,1-3.4,1.5-5.1c0.5-1.8,1.1-3.5,1.7-5.3c0.4-1.3,1.6-2.1,2.9-2c4.6,0.4,9.2,0.7,13.8,1.2
					c0.6,0.1,1.2,0.4,1.7,0.7c0.8,0.5,1.1,1.2,1,2.2c-0.3,3.2-0.5,6.4-0.8,9.6c0,0.5-0.3,0.5-0.7,0.5c-2.5-0.2-5.1-0.4-7.6-0.7
					c-4.3-0.4-8.6-0.8-12.9-1.1C72.7,100.1,72.6,100.1,72.3,100z"/>
				<path class="st1" d="M74.5,43.2c1.1,1.2,1.3,2.6,1.3,4.1c-0.2,6.5-0.4,13.1-0.7,19.6c-0.2,5.6-0.4,11.2-0.8,16.8
					c-0.1,1.8-0.6,3.5-1,5.3c0,0.1-0.4,0.3-0.5,0.3c-0.2,0-0.6-0.2-0.6-0.4C72,88.4,72,87.8,72,87.3c0.1-6.1,0.3-12.1,0.4-18.2
					c0.1-3.7,0.2-7.4,0.2-11c0.1-3.9,0.1-7.9,0.3-11.8c0-0.7,0.6-1.3,0.9-2C74,43.9,74.2,43.6,74.5,43.2z"/>
				<path class="st1" d="M77.9,38.2c0.1-0.1,0.1-0.2,0.2-0.2c2.8-2.5,1.5-2.1,6-1.9c4.6,0.2,9.3,0.5,13.9,0.8c0.5,0,0.8,0.2,0.8,0.8
					c-0.1,0.7,0,1.3-0.2,2c-0.3,1.5-1.2,2.3-2.8,2.2c-1.2,0-2.3-0.2-3.5-0.3c-2.9-0.2-5.8-0.4-8.7-0.6c-0.5,0-1-0.1-1.5-0.1
					c-1.6,0.1-2.8-0.6-3.6-2C78.4,38.7,78.1,38.5,77.9,38.2z"/>
				<path class="st1" d="M73.4,7.8c0.3,0,0.6-0.1,1-0.1c0-1,0-1.9,0-3c1,0.3,1.8,0.5,2.6,0.7c0,1.7,0,3.3,0,5
					c-0.1,5.5-0.3,11-0.5,16.5c0,1.2-0.1,2.4-0.1,3.5c0.1,1.3-0.8,2.1-1.6,3c-0.9-1-1.5-2.1-1.5-3.5c0-7.2,0-14.4,0-21.6
					C73.3,8.1,73.4,8,73.4,7.8z"/>
				<path class="st1" d="M50.2,39.7c2.2-3.6,6.2-5.4,10.3-4.8c2.1,0.3,4.3,0.3,6.5,0.4c0.7,0,1.3,0,2,0.1c1.5,0.3,2.1,1.4,1.5,2.8
					c-0.6,1.4-1.7,2.2-3.2,2.2c-5.6-0.2-11.2-0.4-16.8-0.7C50.5,39.8,50.3,39.7,50.2,39.7z"/>
				<path class="st1" d="M74.9,40.8c-0.1-0.1-0.1-0.1-0.2-0.1c-1.4-1-1.7-2.3-1.1-3.8c0.1-0.3,0.2-0.7,0.3-1
					c0.1-0.3,0.3-0.6,0.5-0.7c0.4-0.1,0.8-0.1,1.2,0.4c1.2,1.6,1.2,1.6,0.2,3.3C75.7,39.6,75.3,40.2,74.9,40.8z"/>
				<path class="st1" d="M60.8,67.7c-9.4-0.8-18.7-1.5-28-2.2c0-0.2-0.1-0.3-0.1-0.4c0-3.9,0-7.8,0.1-11.8c0-1.1,0.9-2,2-1.9
					c1.9,0.1,3.8,0.2,5.7,0.4c4.2,0.3,8.3,0.6,12.5,1c2.4,0.2,4.7,0.4,7.1,0.6c0.8,0.1,1.6,0.8,1.5,1.5
					C61.4,59.1,61.1,63.4,60.8,67.7z"/>
				<path class="st1" d="M63.7,89.8c-0.8,1.7-1.6,3.3-2.3,4.9c-0.6,1.2-1.2,2.4-1.8,3.6c-0.4,0.8-0.9,1.1-1.9,1
					c-3.7-0.5-7.3-1-11-1.5c-5.2-0.7-10.4-1.4-15.7-2.1c-2.3-0.3-4.5-0.6-6.8-0.9c-0.4-0.1-0.7-0.4-1.3-0.8c0.5-0.5,0.9-0.7,1.3-1.1
					c2.2-2.1,4.3-4.2,6.4-6.4c0.8-0.8,1.7-1.1,2.8-1c2.5,0.3,4.9,0.6,7.4,0.9c5.2,0.7,10.3,1.3,15.5,2c2,0.3,4,0.5,6,0.8
					C62.7,89.3,63.2,89.6,63.7,89.8z"/>
				<path class="st1" d="M60.4,69.7c0,2.8,0,5.5,0,8.3c-0.9-0.1-1.7-0.1-2.6-0.2c-5.8-0.7-11.7-1.4-17.5-2.1
					c-1.8-0.2-3.7-0.4-5.5-0.6c-0.4,0-0.8-0.1-1.2-0.2c-1.1-0.3-1.6-1-1.5-2.1c0.1-1.4,0.1-2.7,0.2-4.1c0.1-1.3,0.4-1.6,1.7-1.5
					c2.1,0.2,4.3,0.4,6.4,0.7c3.8,0.4,7.6,0.7,11.4,1.1C54.7,69.2,57.5,69.5,60.4,69.7z"/>
				<path class="st1" d="M33,49.2c-0.1-1.4-0.2-2.6-0.3-4c11.4,0.6,22.8,1.2,34.2,1.9c-0.1,1.9-0.1,3.7-0.2,5.4
					c-0.2,3.3-0.4,6.6-0.5,9.9c-0.1,1.1-0.2,2.2-0.2,3.3c0,1.2-0.3,2.1-1.6,2.6c-0.7-0.7-1.4-1.3-1.3-2.6c0.3-3.2,0.5-6.4,0.6-9.6
					c0-0.8,0-1.6-0.1-2.3c-0.1-1.1-0.8-1.9-1.9-2c-1.6-0.3-3.2-0.5-4.8-0.6C50,50.5,43.1,50,36.2,49.5C35.1,49.4,34.1,49.3,33,49.2z
					"/>
				<path class="st1" d="M22.1,72.3c0-3.4,0-6.7,0-10c0-2.1,0.1-4.2,0.2-6.3c0.1-1.6,0-3.1-1-4.5c1.4-1.2,3-1.4,4.6-1.2
					c1.4,0.2,2.8,0.4,4.1,0.7c0.2,0,0.6,0.4,0.6,0.6c0.2,1.1,0.4,2.3,0.4,3.4c0,2.8-0.1,5.6-0.1,8.4c0,1.4-0.4,2.4-1.6,3.3
					c-2.4,1.7-4.6,3.5-6.9,5.3C22.3,72.2,22.2,72.3,22.1,72.3z"/>
				<path class="st1" d="M22.8,92.1c-1-0.3-1.3-1-1.3-2c0.1-4.9,0-9.7,0-14.6c0-0.3,0-0.6,0-1c0.6,0.2,1.1,0.3,1.6,0.5
					c2,0.5,3.9,1.1,5.9,1.6c0.7,0.2,1.1,0.5,1.1,1.2c0.1,1.3,0.3,2.7,0.2,4c-0.1,0.9-0.4,1.9-0.9,2.6c-1.8,2.2-3.7,4.4-5.6,6.5
					C23.5,91.4,23.2,91.8,22.8,92.1z"/>
				<path class="st1" d="M24.1,73.2c2.1-1.6,4.1-3.1,6.2-4.7c0,2.1,0,4,0,6c-1.9-0.2-3.7-0.4-5.5-0.6C24.5,73.8,24.3,73.5,24.1,73.2
					z"/>
			</g>
		</g>
	</g>
</g>
</svg>
